<svg width="24" height="24" viewBox="0 0 24 24" fill="none" xmlns="http://www.w3.org/2000/svg">
<g id="Icon/Solid/play">
<path id="Icon" d="M20.5984 11.9999C20.5984 16.7496 16.7481 20.5999 11.9984 20.5999C7.24879 20.5999 3.39844 16.7496 3.39844 11.9999C3.39844 7.25025 7.24879 3.3999 11.9984 3.3999C16.7481 3.3999 20.5984 7.25025 20.5984 11.9999ZM12.0188 7.76939C11.3437 7.31934 10.4757 7.27738 9.76035 7.66022C9.045 8.04306 8.59844 8.78855 8.59844 9.5999V14.3999C8.59844 15.2113 9.045 15.9567 9.76035 16.3396C10.4757 16.7224 11.3437 16.6805 12.0188 16.2304L15.6188 13.8304C16.2308 13.4224 16.5984 12.7355 16.5984 11.9999C16.5984 11.2643 16.2308 10.5774 15.6188 10.1694L12.0188 7.76939Z" fill="white" stroke="white" stroke-width="2"/>
</g>
</svg>
